<?xml version="1.0" encoding="utf-8"?>
<!-- Generator: Adobe Illustrator 23.0.2, SVG Export Plug-In . SVG Version: 6.00 Build 0)  -->
<svg version="1.1" id="Calque_1" xmlns="http://www.w3.org/2000/svg" xmlns:xlink="http://www.w3.org/1999/xlink" x="0px" y="0px"
	 viewBox="0 0 1000 1000" style="enable-background:new 0 0 1000 1000;" xml:space="preserve">
<style type="text/css">
	.st0{fill:#FFFFFF;}
</style>
<g>
	<path class="st0" d="M858.5,277.5c-0.6,5.7-1.3,11.4-1.9,17.1c-0.3,2.3-0.7,4.5-1.1,7.2c8,0,15.4,0,23.5,0
		c-1.4,8.1-2.7,15.6-4.2,23.8c-4.4,0-8.7,0.1-13,0c-2.5-0.1-3.5,0.8-3.8,3.3c-2.2,16.1-9.1,30.2-19.8,42.3c-2.1,2.4-2.4,4.2-1,7
		c7.9,16.5,15.6,33.1,23.4,49.7c0.8,1.6,1.4,3.3,2.3,5.5c-56.8,0-113,0-169.9,0c-2.1,11.6-4.1,22.8-6.2,34.5c26.9,0,53.3,0,80.7,0
		c-3.9,22.4-7.8,44.3-11.7,66.7c-7.2,0-14.3,0-21.6,0c-3.2,17.9-6,35.2-9.3,52.5c-3.9,20.4-6.3,41.4-12.6,61
		c-13.5,41.8-41.4,73-78.6,95.6c-17,10.3-35.4,18.4-53.3,27.3c-1.3,0.6-3.4,0.8-4.5,0.1c-24.8-13.6-48.1-29.3-66.1-51.6
		c-11.3-13.9-19.3-29.4-24-47.5c-0.6,1.3-0.9,1.8-1.1,2.5c-0.3,0.8-0.4,1.6-0.7,2.4c-6.5,21.4-18.5,38.7-38.2,49.9
		c-21.1,12-47.8,11.9-68.1-9.4c-3.8,4.7-7.3,9.8-11.5,14.1c-14.9,15.4-32.5,24.2-54.5,21.5c-10.6-1.3-19.7-5.9-27.5-13.1
		c-1.3-1.2-2.6-2.5-4-3.9c-2.8,3.7-5.2,7.2-8,10.5c-14.3,17-32.2,26.5-54.8,26c-10.6-0.3-21.3,0-32.8,0c1.3-8,2.5-15.4,3.7-23.1
		c-7.8,0-15.4,0-22.9,0l0.1,0.1c1-7,1.9-14.1,2.9-21.1c0.1-1,0.3-1.9,0.4-3.2c-7.7,0-15.2,0-23.4,0c1.3-7.6,2.4-14.7,3.8-21.8
		c0.2-0.9,2-2,3.2-2.1c4-0.3,8-0.3,12,0c3.1,0.2,4.2-0.8,4.8-4c3.6-19.6,12.4-36.6,27.6-49.6c5.1-4.4,11.1-7.9,17.1-11.1
		c2.8-1.5,4.2-3.1,4.7-6.2c6.4-36.7,12.9-73.5,19.4-110.2c3.2-18.2,6.4-36.4,9.7-54.6c0.6-3.5,0.2-6.2-2.3-9.1
		c-5.6-6.2-10.8-12.7-15.9-19.3c-2.2-2.8-4.5-3.9-8-3.8c-25.8,0.1-51.7,0.1-77.5,0.1c-1.8,0-3.6,0-5.9,0c2.5-14.4,4.9-28.1,7.3-41.8
		c5.5-31.1,11.1-62.3,16.4-93.4c0.5-2.9-0.1-6.3-1.3-9c-4.4-10.1-9.2-19.9-13.8-29.9c-0.7-1.5-1.2-3-2-4.9c2.2-0.1,3.8-0.3,5.4-0.3
		c27.7,0,55.3,0.1,83-0.1c3.8,0,5.6,1.2,7,4.6c3.7,8.5,7.8,16.8,12,25.9c7.6-9.3,14.9-17.9,21.9-26.8c2-2.5,4.1-3.7,7.5-3.7
		c170.2,0.1,340.3,0.2,510.5,0.2c14,0,28,0.1,42,0.1c1.8,0,3.6,0,5.9,0c-1.4,8.1-2.7,15.6-3.9,23.2
		C843.6,277.5,851,277.5,858.5,277.5L858.5,277.5z M357.3,630.1c0,0.3,0,0.6,0,0.9c-8.5,1.7-16.9,3.5-25.4,5
		c-8.6,1.5-16.2,5.2-22.5,11.2c-14.4,13.6-21.5,30.4-20.2,50.2c0.9,12.9,5.7,24.2,18.3,30c12.4,5.8,23.9,2.1,34.2-5.5
		c12.7-9.3,20.4-22.1,23.1-37.3c9.6-53.1,18.8-106.2,28.2-159.3c2-11.1,3.9-22.2,5.9-33.3c18.9,0,37.3,0,56.3,0
		c-6.7,38.3-13.4,76.3-20.1,114.5c6.9,1.8,13.4,3.4,19.8,5c-8.5,2.5-16.9,4.2-25.4,5.7c-8.3,1.5-15.6,4.8-21.8,10.4
		c-16.3,15-23.7,33.6-20.5,55.7c2.6,18.2,16.4,29.6,33,27.8c10.4-1.2,18.7-6.6,25.9-14c11-11.4,15.4-25.6,18.1-40.8
		c9.9-57.7,20.2-115.4,30.4-173.1c2.8-15.8,5.6-31.7,8.4-47.6c-81.5,0-162.5,0-244.3,0c4.4,5.3,8,10.2,12.2,14.7
		c2.4,2.6,2.9,5.2,2.3,8.6c-7.2,40.5-14.4,81-21.5,121.4c-3.7,21.1-7.4,42.2-11.2,63.8c6.8,1.7,13.3,3.4,19.8,5.1
		c-8.6,2.5-17.2,4.3-25.8,5.8c-9.4,1.6-17.2,6-23.9,12.5c-10.1,9.9-16.3,22-18.1,35.9c-0.8,6.8-0.6,14.1,0.9,20.8
		c5.1,22.1,25.9,31.2,45.7,20c16.7-9.4,25.6-24.5,28.9-42.8c12.2-68.5,24.2-137,36.1-205.6c0.6-3.5,2.1-4.2,5.3-4.2
		c15.8,0.1,31.7,0,47.5,0.1c1.3,0,2.6,0.2,4.4,0.3c-7.8,44.6-15.6,88.9-23.4,133.3C344.7,626.9,351,628.5,357.3,630.1z M570.8,524.9
		c-15.2,5.6-29.7,11.1-44.2,16.2c-3.7,1.3-5,3.4-5.7,7c-4.1,24-8,47.9-12.7,71.8c-6.2,31.7,0.2,60.2,20.7,85.3
		c13.1,16.1,29.4,28.4,47.3,38.8c1.5,0.9,4.2,0.8,5.8,0c11-5.3,22-10.4,32.5-16.4c8.9-5.1,17.1-11.5,25.8-17.1
		c3.3-2.2,3.5-4.4,1.8-7.8c-2.5-5.2-4.4-10.6-7.1-17.2c7.5,4,13.9,7.3,20.3,10.7c18.1-19.2,32.1-40.3,37.5-66
		c4.3-20.2,7.4-40.6,11-60.9c1.7-9.6,3.4-19.2,5.1-28.9c-13.9-5.9-27.2-11.6-40.9-17.4c-2.8,15.9-5.4,31.2-8.2,46.4
		c-3,16.5-5.2,33.3-9.5,49.5c-8.7,32.3-31.2,53.9-58.4,71.3c-1,0.7-3.6,0.2-4.6-0.7c-21.6-18.1-35.1-40.5-32.3-69.5
		c1.9-19.8,6.1-39.4,9.4-59.1C566.5,549.1,568.6,537.4,570.8,524.9z M212.3,346.2c0.4,0,0.7,0,1-0.1c7.2,15.3,14.4,30.6,21.9,46.5
		c13.2-16,25.9-31.5,38.7-46.9c0.3,0.1,0.5,0.3,0.8,0.4c-3.7,21-7.4,42.1-11.1,63.5c11.9,0,23.1,0,34.7,0
		c7.7-43.7,15.4-87.4,23.2-131.7c-10,0-19.5,0.1-29-0.1c-3.2-0.1-5.2,1-7.1,3.4c-11.4,14.1-23,28.1-34.6,42.1
		c-1.3,1.6-2.7,3.1-4.4,5.1c-7.5-16.1-14.7-31.5-21.9-46.8c-0.7-1.4-2.2-3.5-3.4-3.5c-12.9-0.3-25.9-0.2-39.5-0.2
		c1.6,3.5,3.2,6.3,4.2,9.2c0.7,2.1,1.3,4.6,0.9,6.7c-4.7,27.2-9.6,54.4-14.4,81.6c-2,11.3-3.9,22.5-5.9,34.1c11.8,0,23.1,0,34.7,0
		C204.8,388.4,208.6,367.3,212.3,346.2z M759.8,377.3c9-0.7,9-0.7,12.5,6.6c2.6,5.6,5.8,11,7.7,16.8c2.5,7.3,6.5,10.7,14.5,9.4
		c4.5-0.7,9.3-0.1,14-0.1c5.5,0,11.1,0,17.4,0c-6.8-14.5-13.1-28.2-19.6-42c12.6-8.4,21.5-19.1,26.1-33.1
		c10.1-30.6-8.9-56.8-40.9-56.8c-14.5,0-29,0.1-43.5-0.1c-3.9-0.1-5.7,0.6-6.4,5.1c-4.3,25.6-9,51.1-13.5,76.7
		c-2.9,16.5-5.8,33.1-8.7,49.9c11.8,0,23.1,0,34.7,0C756,398.8,757.9,388.1,759.8,377.3z M607.1,409.7c31.4,0,62.3,0,93.5,0
		c2-11.5,3.9-22.7,6-34.7c-19.9,0-39.1,0-58.7,0c0.9-4.9,1.7-9,2.5-13.6c8.7,0,17-0.1,25.3,0.1c3.3,0.1,5.1-0.9,6.6-3.9
		c3.3-6.9,7.1-13.6,10.7-20.3c1.7-3.3,3.4-6.6,5.6-10.7c-14.5,0-27.9,0-41.9,0c0.8-4.8,1.5-9,2.3-13.7c19.7,0,39.1,0,58.7,0
		c2-11.7,4-23,6-34.5c-31.4,0-62.3,0-93.4,0C622.5,322.1,614.8,365.7,607.1,409.7z M377.2,390.7c14.6,15.6,32.2,22.1,52.8,21.4
		c24.5-0.9,43.9-16.6,49.3-40.5c2.6-11.5-0.1-21.4-8.7-29.6c-7.5-7.2-16.4-11.8-26.2-15c-4.6-1.5-9.3-2.7-13.6-4.8
		c-2.1-1-5-4-4.7-5.4c0.5-2.4,2.9-5.2,5.3-6.4c8.1-3.9,18.5-1.4,24.6,5.4c1.8,1.9,3.4,3.9,5.3,6c9.9-8.5,19.5-16.8,29-24.9
		c-14.1-18.3-36.5-23.5-57.4-20.3c-15.1,2.4-27.5,9.6-35.5,22.7c-14.3,23.8-10.1,44.2,15.6,56.7c3.3,1.6,6.7,2.8,10.2,4.1
		c5.1,1.9,10.5,3.4,15.4,5.7c2.2,1,5.5,4.3,5.1,5.6c-0.7,2.5-3.3,5.5-5.8,6.4c-10,3.5-19,1-26.7-6.2c-1.8-1.7-2.9-4-4.3-6
		C396.2,374.5,387,382.4,377.2,390.7z M739.3,491.9c-31.2,0-61.9,0-93,0c2.3-13,4.5-25.2,6.7-37.8c3.3,0,6.3,0.2,9.2-0.1
		c1.3-0.1,3.2-1.3,3.5-2.3c1.2-5.3,1.9-10.7,2.9-16.3c-22.5,0-44.5,0-66.9,0c-1.1,6.3-2.1,12.3-3.2,18.7c11.4,0,22.3,0,33.2,0
		c-5.6,3.1-11.3,5.7-17.3,7.4c-4.1,1.2-5.8,3.4-6.3,7.6c-1,7.6-2.6,15-4,23c-32.7,0-65.1,0-97.6,0c-1.1,6.5-2.2,12.5-3.3,19
		c34.3,0,68,0,102.3,0c0.7,26.1,1.3,51.8,1.9,77.4c1.4-1.5,2.2-3.1,2.8-4.8c8.6-22.9,17.3-45.7,25.8-68.7c1.2-3.2,2.7-4.1,6.1-4.1
		c29.5,0.1,59,0.1,88.5,0.1c1.8,0,3.6,0,5.7,0C737,504.6,738.1,498.6,739.3,491.9z M569.6,312.9c0,0.4,0.1,0.7,0.1,1.1
		c-10.1,3.7-20.2,7.5-30.4,11c-2.9,1-4.1,2.5-4.6,5.6c-2.3,14.3-5,28.5-7.5,42.8c-2.1,12-4.2,24.1-6.3,36.3c11.9,0,23.3,0,34.7,0
		c5.5-30.8,11-61.3,16.1-91.8c0.7-4.2,2.3-5,6.1-4.9c9.6,0.2,19.3,0.1,29.2,0.1c2-11.7,4-23.1,6.1-34.9c-2.5,0-4.3,0-6.1,0
		c-30.2,0-60.3,0.1-90.4-0.1c-5.2,0-7.6,1-8.2,6.7c-1,9.3-3.1,18.6-4.8,28.3C526.1,312.9,547.8,312.9,569.6,312.9z M320.4,409.7
		c12,0,23.2,0,34.8,0c7.7-43.8,15.4-87.4,23.1-131.5c-10.1,0-19.2,0.3-28.4-0.1c-4.8-0.2-7,1-7.6,6.2c-1.1,9.5-3.1,18.8-4.8,28.8
		c11.2,0,21.5,0,31.9,0c-9.6,4.4-19.3,8.3-29.1,11.5c-4.1,1.3-5.8,3.4-6.4,7.5c-1.2,8.7-3,17.4-4.5,26
		C326.4,375.2,323.5,392.2,320.4,409.7z"/>
	<path class="st0" d="M858.5,277.5c1.2-4.5,2.5-9,3.4-13.5c1.8-9.6,1.6-9.6,11.5-9.6c4.2,0,8.3,0.1,12.4,0.1c0.3,0,0.6,0.3,1.4,0.7
		c-1.3,7.4-2.6,15-3.9,22.4C874.6,277.5,866.6,277.5,858.5,277.5L858.5,277.5z"/>
	<path class="st0" d="M165.4,749.4c-1.6,7.5-3.3,15.1-5,22.9c-7.6,0-15.2,0-23.4,0c1.4-7.8,2.7-15.4,4-22.8
		C149.4,749.5,157.4,749.5,165.4,749.4C165.5,749.5,165.4,749.4,165.4,749.4z"/>
	<path class="st0" d="M766.1,342.1c0.9-5.6,1.7-10.5,2.6-15.6c-10-4.3-19.8-8.4-30.7-13c2.1-0.3,3.1-0.5,4.1-0.5
		c14.7,0,29.3,0.1,43.9-0.1c5.2,0,9.6,1.4,12.2,6.1c2.7,4.9,1.8,9.7-1,14.2c-3.5,5.6-8.3,8.9-15.2,8.9
		C776.9,342.1,771.8,342.1,766.1,342.1z"/>
</g>
</svg>
