<?xml version="1.0" encoding="utf-8"?>
<!-- Generator: Adobe Illustrator 23.0.2, SVG Export Plug-In . SVG Version: 6.00 Build 0)  -->
<svg version="1.1" id="Calque_1" xmlns="http://www.w3.org/2000/svg" xmlns:xlink="http://www.w3.org/1999/xlink" x="0px" y="0px"
	 viewBox="0 0 1000 1000" style="enable-background:new 0 0 1000 1000;" xml:space="preserve">
<style type="text/css">
	.st0{fill:#FFFFFF;}
</style>
<g>
	<path class="st0" d="M892,891c-260.33,0-520.67,0-781,0c0-260.33,0-520.67,0-781c260.33,0,520.67,0,781,0
		C892,370.33,892,630.67,892,891z M858.47,277.55c-7.43,0-14.85,0-22.53,0c1.28-7.54,2.55-15.03,3.93-23.17c-2.28,0-4.07,0-5.86,0
		c-14-0.03-28-0.08-42-0.08c-170.16-0.05-340.31-0.08-510.47-0.22c-3.4,0-5.5,1.14-7.53,3.68c-7.04,8.8-14.28,17.46-21.92,26.75
		c-4.24-9.04-8.34-17.37-12.03-25.87c-1.46-3.37-3.27-4.6-7.03-4.57c-27.66,0.18-55.33,0.09-82.99,0.11c-1.6,0-3.2,0.14-5.38,0.25
		c0.8,1.96,1.35,3.47,2.03,4.92c4.63,9.96,9.46,19.83,13.82,29.9c1.17,2.7,1.76,6.13,1.27,9c-5.32,31.17-10.93,62.3-16.43,93.44
		c-2.42,13.72-4.78,27.45-7.28,41.82c2.32,0,4.11,0,5.9,0c25.83,0,51.66,0.06,77.49-0.07c3.51-0.02,5.84,1.04,7.99,3.83
		c5.09,6.59,10.34,13.08,15.89,19.29c2.53,2.83,2.98,5.53,2.33,9.06c-3.32,18.17-6.47,36.38-9.68,54.57
		c-6.47,36.72-12.98,73.43-19.36,110.16c-0.54,3.08-1.88,4.62-4.7,6.15c-5.96,3.23-11.95,6.74-17.08,11.12
		c-15.27,13.04-24.02,30.01-27.65,49.6c-0.6,3.22-1.71,4.16-4.77,4c-3.99-0.22-8.01-0.2-11.99,0.05c-1.14,0.07-3.01,1.17-3.19,2.07
		c-1.44,7.07-2.55,14.2-3.84,21.76c8.22,0,15.68,0,23.39,0c-0.17,1.33-0.29,2.29-0.42,3.24c-0.97,7.04-1.94,14.09-2.92,21.12
		c-8.05,0-16.1,0-24.44,0c-1.29,7.42-2.61,15-3.97,22.81c8.2,0,15.8,0,23.38,0c1.69-7.77,3.34-15.32,4.99-22.87
		c7.53,0,15.07,0,22.88,0c-1.24,7.69-2.44,15.14-3.73,23.1c11.48,0,22.13-0.21,32.77,0.04c22.68,0.54,40.51-9,54.84-25.95
		c2.76-3.27,5.19-6.83,7.95-10.49c1.46,1.39,2.73,2.64,4.05,3.86c7.8,7.22,16.93,11.77,27.5,13.08c22.02,2.73,39.65-6.06,54.5-21.46
		c4.19-4.35,7.67-9.4,11.48-14.13c20.26,21.32,47,21.41,68.1,9.38c19.68-11.22,31.67-28.5,38.16-49.9c0.24-0.8,0.39-1.62,0.66-2.4
		c0.21-0.62,0.54-1.2,1.12-2.46c4.74,18.1,12.8,33.63,24.05,47.54c18.06,22.32,41.3,38,66.14,51.6c1.17,0.64,3.29,0.5,4.54-0.13
		c17.84-8.95,36.25-16.98,53.26-27.31c37.15-22.57,65.05-53.8,78.58-95.56c6.36-19.64,8.75-40.59,12.64-61
		c3.29-17.29,6.16-34.67,9.3-52.54c7.35,0,14.42,0,21.64,0c3.93-22.4,7.77-44.25,11.7-66.66c-27.39,0-53.83,0-80.69,0
		c2.09-11.69,4.09-22.9,6.16-34.45c56.83,0,113.06,0,169.86,0c-0.94-2.24-1.58-3.91-2.33-5.52c-7.75-16.58-15.46-33.17-23.36-49.69
		c-1.35-2.82-1.07-4.62,1.02-7c10.7-12.15,17.57-26.2,19.76-42.34c0.35-2.57,1.35-3.4,3.8-3.33c4.28,0.12,8.56,0.03,13,0.03
		c1.43-8.18,2.75-15.77,4.16-23.84c-8.1,0-15.55,0-23.52,0c0.43-2.7,0.86-4.95,1.14-7.22C857.22,288.96,857.83,283.25,858.47,277.55
		c8.08-0.01,16.17-0.01,24.76-0.01c1.29-7.33,2.62-14.92,3.93-22.36c-0.81-0.4-1.1-0.66-1.39-0.67c-4.15-0.07-8.29-0.12-12.44-0.13
		c-9.85-0.02-9.73,0.02-11.48,9.62C861.02,268.58,859.62,273.04,858.47,277.55z"/>
	<path d="M858.47,277.55c-0.64,5.7-1.25,11.41-1.93,17.11c-0.27,2.27-0.7,4.51-1.14,7.22c7.97,0,15.43,0,23.52,0
		c-1.41,8.06-2.73,15.65-4.16,23.84c-4.44,0-8.72,0.09-13-0.03c-2.45-0.07-3.45,0.76-3.8,3.33c-2.18,16.14-9.06,30.19-19.76,42.34
		c-2.09,2.38-2.37,4.17-1.02,7c7.89,16.51,15.6,33.11,23.36,49.69c0.75,1.61,1.39,3.28,2.33,5.52c-56.8,0-113.02,0-169.86,0
		c-2.06,11.56-4.07,22.77-6.16,34.45c26.86,0,53.3,0,80.69,0c-3.93,22.41-7.77,44.26-11.7,66.66c-7.22,0-14.29,0-21.64,0
		c-3.15,17.87-6.01,35.24-9.3,52.54c-3.89,20.41-6.28,41.36-12.64,61c-13.52,41.76-41.43,72.99-78.58,95.56
		c-17.01,10.33-35.42,18.37-53.26,27.31c-1.25,0.63-3.38,0.77-4.54,0.13c-24.84-13.6-48.08-29.29-66.14-51.6
		c-11.26-13.91-19.31-29.44-24.05-47.54c-0.58,1.25-0.91,1.84-1.12,2.46c-0.27,0.78-0.42,1.61-0.66,2.4
		c-6.49,21.4-18.48,38.68-38.16,49.9c-21.11,12.03-47.84,11.94-68.1-9.38c-3.81,4.74-7.28,9.78-11.48,14.13
		c-14.85,15.41-32.47,24.19-54.5,21.46c-10.57-1.31-19.69-5.86-27.5-13.08c-1.31-1.22-2.59-2.47-4.05-3.86
		c-2.76,3.66-5.19,7.22-7.95,10.49c-14.33,16.95-32.16,26.48-54.84,25.95c-10.64-0.25-21.29-0.04-32.77-0.04
		c1.28-7.96,2.49-15.41,3.73-23.1c-7.81,0-15.35,0-22.88,0c0,0,0.06,0.07,0.06,0.07c0.97-7.04,1.94-14.08,2.91-21.13
		c0.13-0.95,0.25-1.91,0.42-3.24c-7.7,0-15.16,0-23.39,0c1.29-7.56,2.4-14.7,3.84-21.76c0.18-0.9,2.04-2,3.19-2.07
		c3.98-0.26,8-0.27,11.99-0.05c3.06,0.17,4.18-0.78,4.77-4c3.63-19.59,12.37-36.56,27.65-49.6c5.13-4.38,11.12-7.88,17.08-11.12
		c2.81-1.53,4.16-3.07,4.7-6.15c6.38-36.73,12.89-73.45,19.36-110.16c3.21-18.19,6.36-36.4,9.68-54.57
		c0.65-3.53,0.19-6.23-2.33-9.06c-5.55-6.21-10.8-12.69-15.89-19.29c-2.16-2.79-4.48-3.85-7.99-3.83
		c-25.83,0.13-51.66,0.07-77.49,0.07c-1.79,0-3.58,0-5.9,0c2.5-14.37,4.86-28.1,7.28-41.82c5.5-31.14,11.1-62.27,16.43-93.44
		c0.49-2.87-0.1-6.3-1.27-9c-4.37-10.07-9.19-19.94-13.82-29.9c-0.67-1.45-1.22-2.96-2.03-4.92c2.18-0.1,3.78-0.25,5.38-0.25
		c27.66-0.01,55.33,0.07,82.99-0.11c3.76-0.02,5.57,1.2,7.03,4.57c3.69,8.5,7.79,16.83,12.03,25.87
		c7.64-9.29,14.88-17.94,21.92-26.75c2.03-2.54,4.13-3.68,7.53-3.68c170.16,0.14,340.31,0.17,510.47,0.22c14,0,28,0.05,42,0.08
		c1.79,0,3.58,0,5.86,0c-1.38,8.13-2.65,15.63-3.93,23.17C843.62,277.55,851.05,277.55,858.47,277.55L858.47,277.55z M357.26,630.07
		c0,0.29,0,0.59,0,0.88c-8.47,1.67-16.93,3.47-25.43,4.97c-8.63,1.52-16.16,5.22-22.47,11.19c-14.4,13.6-21.46,30.4-20.17,50.17
		c0.85,12.91,5.74,24.19,18.3,30.02c12.41,5.77,23.85,2.09,34.2-5.49c12.66-9.28,20.36-22.1,23.13-37.35
		c9.62-53.07,18.82-106.21,28.18-159.32c1.96-11.11,3.94-22.23,5.91-33.34c18.93,0,37.34,0,56.32,0
		c-6.74,38.33-13.42,76.27-20.14,114.47c6.89,1.75,13.36,3.39,19.83,5.04c-8.47,2.45-16.92,4.19-25.41,5.71
		c-8.25,1.48-15.65,4.78-21.78,10.43c-16.29,15.03-23.68,33.59-20.55,55.69c2.57,18.19,16.4,29.61,33.03,27.75
		c10.4-1.16,18.72-6.56,25.85-13.95c11.02-11.41,15.43-25.59,18.06-40.85c9.94-57.74,20.24-115.42,30.4-173.12
		c2.79-15.84,5.57-31.68,8.37-47.63c-81.46,0-162.5,0-244.32,0c4.35,5.31,8.05,10.21,12.17,14.71c2.41,2.63,2.88,5.2,2.28,8.57
		c-7.23,40.47-14.35,80.97-21.49,121.45c-3.73,21.12-7.44,42.24-11.24,63.82c6.79,1.74,13.31,3.42,19.83,5.09
		c-8.64,2.48-17.18,4.35-25.78,5.83c-9.39,1.61-17.24,5.99-23.93,12.55c-10.09,9.9-16.34,21.98-18.06,35.92
		c-0.84,6.81-0.64,14.11,0.88,20.79c5.05,22.12,25.86,31.15,45.69,19.99c16.66-9.37,25.65-24.46,28.93-42.84
		c12.22-68.5,24.2-137.03,36.15-205.58c0.6-3.45,2.07-4.21,5.26-4.18c15.83,0.13,31.67,0.05,47.5,0.07c1.29,0,2.58,0.17,4.38,0.3
		c-7.83,44.57-15.62,88.86-23.43,133.3C344.74,626.9,351,628.49,357.26,630.07z M570.81,524.93c-15.21,5.61-29.65,11.07-44.2,16.2
		c-3.67,1.29-5.03,3.37-5.66,7.05c-4.07,23.96-8.05,47.94-12.68,71.79c-6.16,31.72,0.22,60.17,20.72,85.28
		c13.14,16.1,29.41,28.44,47.28,38.75c1.49,0.86,4.23,0.77,5.85-0.01c10.95-5.25,22.01-10.36,32.54-16.39
		c8.92-5.11,17.12-11.49,25.75-17.12c3.35-2.18,3.5-4.39,1.83-7.82c-2.51-5.17-4.42-10.62-7.08-17.18
		c7.54,3.99,13.9,7.35,20.32,10.74c18.07-19.23,32.07-40.32,37.49-66c4.26-20.18,7.42-40.6,11.05-60.92
		c1.72-9.62,3.38-19.24,5.07-28.9c-13.86-5.89-27.23-11.57-40.93-17.39c-2.81,15.92-5.42,31.17-8.2,46.39
		c-3.02,16.53-5.16,33.31-9.51,49.5c-8.67,32.28-31.16,53.93-58.41,71.3c-1.02,0.65-3.58,0.19-4.63-0.69
		c-21.61-18.1-35.08-40.48-32.27-69.49c1.92-19.83,6.12-39.44,9.4-59.14C566.5,549.12,568.63,537.39,570.81,524.93z M212.31,346.23
		c0.35-0.02,0.69-0.05,1.04-0.07c7.19,15.3,14.37,30.61,21.85,46.54c13.2-16.01,25.95-31.47,38.69-46.92
		c0.25,0.15,0.5,0.29,0.75,0.44c-3.67,21.04-7.35,42.08-11.08,63.46c11.93,0,23.06,0,34.72,0c7.71-43.71,15.41-87.41,23.22-131.7
		c-10.05,0-19.52,0.15-28.98-0.08c-3.19-0.08-5.18,0.98-7.14,3.4c-11.43,14.11-23.01,28.1-34.55,42.13
		c-1.31,1.59-2.68,3.13-4.36,5.09c-7.53-16.11-14.67-31.49-21.95-46.82c-0.69-1.44-2.21-3.52-3.38-3.54
		c-12.92-0.25-25.85-0.16-39.52-0.16c1.64,3.53,3.19,6.28,4.18,9.21c0.71,2.11,1.28,4.57,0.91,6.7c-4.7,27.22-9.6,54.41-14.41,81.62
		c-1.99,11.26-3.89,22.54-5.88,34.13c11.84,0,23.09,0,34.67,0C204.84,388.39,208.57,367.31,212.31,346.23z M759.84,377.32
		c9.01-0.7,9-0.7,12.45,6.65c2.61,5.57,5.75,10.97,7.71,16.76c2.48,7.34,6.52,10.67,14.53,9.37c4.55-0.73,9.31-0.13,13.98-0.13
		c5.55,0,11.1,0,17.38,0c-6.77-14.53-13.12-28.19-19.56-42.01c12.62-8.35,21.49-19.09,26.09-33.06
		c10.06-30.56-8.86-56.79-40.94-56.83c-14.5-0.02-29,0.12-43.49-0.09c-3.91-0.06-5.7,0.62-6.44,5.07
		c-4.25,25.61-8.95,51.14-13.46,76.71c-2.92,16.54-5.79,33.09-8.72,49.89c11.75,0,23.14,0,34.7,0
		C756,398.75,757.9,388.12,759.84,377.32z M607.06,409.66c31.42,0,62.32,0,93.51,0c1.99-11.48,3.94-22.71,6.02-34.66
		c-19.94,0-39.14,0-58.66,0c0.9-4.85,1.68-9.05,2.52-13.61c8.67,0,16.98-0.14,25.27,0.07c3.25,0.08,5.11-0.85,6.58-3.89
		c3.32-6.89,7.09-13.56,10.66-20.33c1.73-3.29,3.43-6.59,5.57-10.72c-14.5,0-27.91,0-41.93,0c0.82-4.8,1.53-9.01,2.32-13.67
		c19.7,0,39.12,0,58.7,0c2.05-11.72,4.02-22.98,6.03-34.51c-31.4,0-62.31,0-93.44,0C622.5,322.11,614.82,365.66,607.06,409.66z
		 M377.24,390.69c14.6,15.63,32.17,22.09,52.79,21.37c24.48-0.86,43.85-16.62,49.34-40.52c2.64-11.49-0.1-21.43-8.66-29.65
		c-7.48-7.18-16.43-11.81-26.2-15c-4.58-1.5-9.3-2.7-13.63-4.75c-2.1-0.99-5.05-3.95-4.74-5.41c0.51-2.43,2.92-5.22,5.26-6.37
		c8.08-3.94,18.48-1.42,24.65,5.36c1.75,1.92,3.42,3.92,5.25,6.04c9.92-8.54,19.46-16.75,28.97-24.93
		c-14.06-18.33-36.54-23.51-57.41-20.26c-15.09,2.35-27.55,9.6-35.45,22.73c-14.29,23.76-10.07,44.16,15.58,56.66
		c3.28,1.6,6.74,2.84,10.17,4.11c5.14,1.9,10.48,3.35,15.42,5.68c2.23,1.05,5.46,4.26,5.08,5.6c-0.72,2.55-3.32,5.55-5.82,6.43
		c-9.98,3.49-19.04,1.03-26.66-6.22c-1.75-1.67-2.89-3.97-4.34-6.04C396.21,374.54,386.97,382.41,377.24,390.69z M739.3,491.88
		c-31.15,0-61.87,0-93.04,0c2.28-12.95,4.45-25.21,6.67-37.82c3.29,0,6.29,0.24,9.23-0.11c1.27-0.15,3.22-1.32,3.45-2.34
		c1.2-5.32,1.94-10.74,2.87-16.3c-22.46,0-44.53,0-66.89,0c-1.07,6.26-2.1,12.25-3.22,18.74c11.4,0,22.29,0,33.18,0
		c-5.62,3.15-11.35,5.67-17.31,7.44c-4.12,1.22-5.79,3.4-6.34,7.58c-0.99,7.56-2.59,15.04-4.01,22.99c-32.71,0-65.14,0-97.61,0
		c-1.14,6.49-2.19,12.5-3.33,19c34.26,0,68.03,0,102.29,0c0.65,26.09,1.28,51.76,1.92,77.43c1.44-1.49,2.15-3.11,2.78-4.76
		c8.63-22.88,17.32-45.74,25.77-68.69c1.19-3.24,2.72-4.14,6.06-4.13c29.5,0.14,59,0.08,88.5,0.08c1.81,0,3.62,0,5.65,0
		C737.05,504.62,738.11,498.59,739.3,491.88z M569.63,312.86c0.03,0.36,0.07,0.72,0.1,1.08c-10.11,3.7-20.19,7.49-30.36,11.04
		c-2.89,1.01-4.06,2.53-4.56,5.6c-2.33,14.28-5.02,28.5-7.54,42.75c-2.13,12.05-4.18,24.12-6.29,36.26c11.88,0,23.27,0,34.71,0
		c5.45-30.82,10.95-61.27,16.09-91.77c0.7-4.18,2.26-5.02,6.06-4.93c9.63,0.24,19.28,0.08,29.18,0.08
		c2.05-11.71,4.05-23.07,6.12-34.9c-2.51,0-4.33,0-6.14,0c-30.15,0-60.29,0.13-90.44-0.13c-5.23-0.05-7.6,0.99-8.23,6.66
		c-1.04,9.34-3.07,18.57-4.75,28.26C526.07,312.86,547.85,312.86,569.63,312.86z M320.4,409.7c11.95,0,23.2,0,34.75,0
		c7.71-43.79,15.39-87.38,23.15-131.48c-10.1,0-19.24,0.26-28.37-0.11c-4.84-0.2-7.01,0.98-7.63,6.2
		c-1.12,9.47-3.11,18.84-4.82,28.75c11.16,0,21.55,0,31.93,0c-9.58,4.43-19.26,8.27-29.12,11.51c-4.06,1.33-5.79,3.37-6.37,7.54
		c-1.21,8.72-2.98,17.37-4.5,26.05C326.44,375.18,323.46,392.21,320.4,409.7z"/>
	<path d="M858.47,277.55c1.15-4.51,2.55-8.97,3.38-13.54c1.75-9.61,1.63-9.64,11.48-9.62c4.15,0.01,8.29,0.06,12.44,0.13
		c0.29,0,0.58,0.27,1.39,0.67c-1.31,7.43-2.64,15.03-3.93,22.36C874.64,277.55,866.56,277.55,858.47,277.55
		C858.47,277.55,858.47,277.55,858.47,277.55z"/>
	<path d="M165.42,749.41c-1.65,7.55-3.29,15.1-4.99,22.87c-7.59,0-15.18,0-23.38,0c1.36-7.81,2.68-15.39,3.97-22.81
		c8.34,0,16.39,0,24.44,0C165.47,749.47,165.42,749.41,165.42,749.41z"/>
	<path class="st0" d="M357.26,630.07c-6.26-1.58-12.52-3.16-19.57-4.95c7.81-44.44,15.6-88.73,23.43-133.3
		c-1.79-0.13-3.08-0.3-4.38-0.3c-15.83-0.02-31.67,0.06-47.5-0.07c-3.19-0.03-4.66,0.73-5.26,4.18
		c-11.95,68.54-23.93,137.08-36.15,205.58c-3.28,18.38-12.27,33.47-28.93,42.84c-19.83,11.16-40.65,2.13-45.69-19.99
		c-1.52-6.67-1.72-13.97-0.88-20.79c1.72-13.93,7.97-26.02,18.06-35.92c6.69-6.56,14.54-10.94,23.93-12.55
		c8.6-1.47,17.14-3.35,25.78-5.83c-6.52-1.67-13.04-3.35-19.83-5.09c3.8-21.59,7.51-42.7,11.24-63.82
		c7.14-40.49,14.27-80.98,21.49-121.45c0.6-3.37,0.14-5.93-2.28-8.57c-4.13-4.5-7.82-9.39-12.17-14.71c81.83,0,162.86,0,244.32,0
		c-2.8,15.95-5.59,31.79-8.37,47.63c-10.16,57.7-20.47,115.38-30.4,173.12c-2.63,15.26-7.04,29.44-18.06,40.85
		c-7.14,7.39-15.45,12.78-25.85,13.95c-16.63,1.86-30.46-9.56-33.03-27.75c-3.12-22.1,4.27-40.66,20.55-55.69
		c6.13-5.66,13.53-8.95,21.78-10.43c8.49-1.52,16.94-3.26,25.41-5.71c-6.47-1.64-12.94-3.29-19.83-5.04
		c6.72-38.2,13.4-76.15,20.14-114.47c-18.98,0-37.4,0-56.32,0c-1.97,11.11-3.95,22.23-5.91,33.34
		c-9.36,53.11-18.56,106.25-28.18,159.32c-2.77,15.26-10.47,28.07-23.13,37.35c-10.35,7.58-21.78,11.26-34.2,5.49
		c-12.56-5.83-17.45-17.11-18.3-30.02c-1.3-19.77,5.77-36.57,20.17-50.17c6.31-5.96,13.84-9.66,22.47-11.19
		c8.5-1.5,16.96-3.3,25.43-4.97C357.26,630.66,357.26,630.36,357.26,630.07z"/>
	<path class="st0" d="M570.81,524.93c-2.18,12.45-4.31,24.19-6.27,35.96c-3.27,19.69-7.48,39.31-9.4,59.14
		c-2.81,29.01,10.66,51.39,32.27,69.49c1.05,0.88,3.61,1.34,4.63,0.69c27.25-17.37,49.74-39.01,58.41-71.3
		c4.35-16.18,6.49-32.96,9.51-49.5c2.78-15.22,5.39-30.47,8.2-46.39c13.7,5.82,27.07,11.5,40.93,17.39
		c-1.69,9.66-3.36,19.28-5.07,28.9c-3.63,20.32-6.79,40.73-11.05,60.92c-5.42,25.68-19.42,46.77-37.49,66
		c-6.42-3.4-12.78-6.76-20.32-10.74c2.66,6.56,4.57,12.01,7.08,17.18c1.66,3.43,1.52,5.64-1.83,7.82
		c-8.64,5.63-16.83,12.01-25.75,17.12c-10.52,6.03-21.58,11.14-32.54,16.39c-1.62,0.78-4.36,0.87-5.85,0.01
		c-17.87-10.31-34.14-22.66-47.28-38.75c-20.49-25.11-26.87-53.56-20.72-85.28c4.63-23.85,8.6-47.83,12.68-71.79
		c0.63-3.68,1.99-5.76,5.66-7.05C541.16,536,555.6,530.54,570.81,524.93z"/>
	<path class="st0" d="M212.31,346.23c-3.73,21.08-7.47,42.16-11.23,63.42c-11.58,0-22.83,0-34.67,0
		c1.99-11.59,3.89-22.87,5.88-34.13c4.81-27.21,9.71-54.4,14.41-81.62c0.37-2.13-0.19-4.59-0.91-6.7c-0.99-2.93-2.54-5.68-4.18-9.21
		c13.67,0,26.6-0.09,39.52,0.16c1.17,0.02,2.7,2.1,3.38,3.54c7.28,15.32,14.43,30.71,21.95,46.82c1.68-1.96,3.05-3.5,4.36-5.09
		c11.54-14.02,23.12-28.01,34.55-42.13c1.96-2.42,3.95-3.48,7.14-3.4c9.46,0.23,18.93,0.08,28.98,0.08
		c-7.81,44.29-15.51,87.99-23.22,131.7c-11.66,0-22.78,0-34.72,0c3.73-21.38,7.41-42.42,11.08-63.46c-0.25-0.15-0.5-0.29-0.75-0.44
		c-12.74,15.46-25.49,30.91-38.69,46.92c-7.48-15.93-14.67-31.23-21.85-46.54C213,346.18,212.65,346.2,212.31,346.23z"/>
	<path class="st0" d="M759.84,377.32c-1.93,10.8-3.84,21.43-5.79,32.34c-11.56,0-22.94,0-34.7,0c2.93-16.8,5.8-33.35,8.72-49.89
		c4.51-25.57,9.21-51.1,13.46-76.71c0.74-4.45,2.53-5.12,6.44-5.07c14.49,0.21,28.99,0.07,43.49,0.09
		c32.08,0.04,51,26.27,40.94,56.83c-4.6,13.97-13.47,24.7-26.09,33.06c6.43,13.82,12.79,27.48,19.56,42.01c-6.28,0-11.83,0-17.38,0
		c-4.67,0-9.43-0.6-13.98,0.13c-8.01,1.29-12.05-2.04-14.53-9.37c-1.96-5.79-5.1-11.19-7.71-16.76
		C768.84,376.62,768.84,376.62,759.84,377.32z M766.09,342.11c5.71,0,10.85-0.02,15.99,0c6.82,0.03,11.7-3.32,15.16-8.91
		c2.78-4.5,3.67-9.31,0.95-14.19c-2.65-4.75-6.97-6.17-12.21-6.13c-14.65,0.12-29.29,0.03-43.94,0.06c-0.98,0-1.96,0.25-4.06,0.54
		c10.89,4.62,20.64,8.75,30.66,13C767.8,331.65,767,336.54,766.09,342.11z"/>
	<path class="st0" d="M607.06,409.66c7.76-44,15.44-87.55,23.15-131.33c31.14,0,62.05,0,93.44,0c-2.02,11.54-3.98,22.79-6.03,34.51
		c-19.58,0-39,0-58.7,0c-0.79,4.65-1.51,8.86-2.32,13.67c14.01,0,27.43,0,41.93,0c-2.14,4.13-3.84,7.44-5.57,10.72
		c-3.57,6.77-7.34,13.44-10.66,20.33c-1.47,3.05-3.33,3.98-6.58,3.89c-8.3-0.21-16.61-0.07-25.27-0.07
		c-0.85,4.56-1.62,8.76-2.52,13.61c19.52,0,38.72,0,58.66,0c-2.08,11.95-4.03,23.18-6.02,34.66
		C669.39,409.66,638.48,409.66,607.06,409.66z"/>
	<path class="st0" d="M377.24,390.69c9.73-8.28,18.98-16.15,29.6-25.19c1.46,2.07,2.6,4.38,4.34,6.04
		c7.62,7.26,16.67,9.72,26.66,6.22c2.5-0.87,5.11-3.88,5.82-6.43c0.38-1.34-2.86-4.55-5.08-5.6c-4.93-2.33-10.28-3.77-15.42-5.68
		c-3.43-1.27-6.89-2.51-10.17-4.11c-25.65-12.49-29.88-32.9-15.58-56.66c7.9-13.13,20.35-20.38,35.45-22.73
		c20.87-3.25,43.35,1.93,57.41,20.26c-9.51,8.18-19.05,16.39-28.97,24.93c-1.83-2.11-3.5-4.11-5.25-6.04
		c-6.17-6.78-16.57-9.3-24.65-5.36c-2.34,1.14-4.75,3.94-5.26,6.37c-0.31,1.46,2.64,4.42,4.74,5.41c4.33,2.04,9.05,3.25,13.63,4.75
		c9.77,3.19,18.72,7.82,26.2,15c8.55,8.22,11.3,18.16,8.66,29.65c-5.49,23.9-24.85,39.67-49.34,40.52
		C409.41,412.78,391.84,406.32,377.24,390.69z"/>
	<path class="st0" d="M739.3,491.88c-1.19,6.71-2.26,12.74-3.38,19.12c-2.03,0-3.84,0-5.65,0c-29.5,0-59,0.06-88.5-0.08
		c-3.34-0.02-4.86,0.88-6.06,4.13c-8.45,22.95-17.14,45.81-25.77,68.69c-0.62,1.65-1.34,3.27-2.78,4.76
		c-0.64-25.67-1.27-51.34-1.92-77.43c-34.26,0-68.03,0-102.29,0c1.14-6.51,2.19-12.51,3.33-19c32.46,0,64.9,0,97.61,0
		c1.42-7.95,3.02-15.43,4.01-22.99c0.55-4.18,2.22-6.36,6.34-7.58c5.95-1.77,11.68-4.28,17.31-7.44c-10.89,0-21.79,0-33.18,0
		c1.11-6.49,2.14-12.49,3.22-18.74c22.36,0,44.42,0,66.89,0c-0.93,5.57-1.67,10.98-2.87,16.3c-0.23,1.02-2.18,2.19-3.45,2.34
		c-2.94,0.35-5.94,0.11-9.23,0.11c-2.22,12.6-4.39,24.87-6.67,37.82C677.43,491.88,708.15,491.88,739.3,491.88z"/>
	<path class="st0" d="M569.63,312.86c-21.78,0-43.57,0-66.04,0c1.69-9.69,3.71-18.92,4.75-28.26c0.63-5.67,2.99-6.7,8.23-6.66
		c30.14,0.26,60.29,0.13,90.44,0.13c1.81,0,3.63,0,6.14,0c-2.07,11.83-4.07,23.19-6.12,34.9c-9.91,0-19.55,0.16-29.18-0.08
		c-3.8-0.09-5.35,0.75-6.06,4.93c-5.14,30.51-10.64,60.95-16.09,91.77c-11.43,0-22.83,0-34.71,0c2.1-12.14,4.16-24.2,6.29-36.26
		c2.51-14.25,5.2-28.47,7.54-42.75c0.5-3.07,1.66-4.59,4.56-5.6c10.17-3.54,20.25-7.34,30.36-11.04
		C569.7,313.58,569.67,313.22,569.63,312.86z"/>
	<path class="st0" d="M320.4,409.7c3.06-17.5,6.04-34.52,9.03-51.55c1.52-8.68,3.29-17.33,4.5-26.05c0.58-4.17,2.31-6.21,6.37-7.54
		c9.87-3.23,19.54-7.07,29.12-11.51c-10.38,0-20.77,0-31.93,0c1.71-9.91,3.7-19.27,4.82-28.75c0.62-5.22,2.79-6.4,7.63-6.2
		c9.12,0.37,18.27,0.11,28.37,0.11c-7.76,44.1-15.44,87.68-23.15,131.48C343.6,409.7,332.35,409.7,320.4,409.7z"/>
	<path d="M766.09,342.11c0.91-5.57,1.71-10.46,2.56-15.62c-10.02-4.25-19.77-8.38-30.66-13c2.1-0.29,3.08-0.54,4.06-0.54
		c14.65-0.02,29.29,0.06,43.94-0.06c5.24-0.04,9.56,1.37,12.21,6.13c2.72,4.88,1.83,9.68-0.95,14.19
		c-3.46,5.59-8.34,8.94-15.16,8.91C776.93,342.09,771.79,342.11,766.09,342.11z"/>
</g>
</svg>
